<svg width="50" height="61" viewBox="0 0 50 61" fill="none" xmlns="http://www.w3.org/2000/svg">
<mask id="mask0_482_988" style="mask-type:luminance" maskUnits="userSpaceOnUse" x="0" y="0" width="16" height="16">
<path d="M0.897949 0.812988H15.5927V15.5077H0.897949V0.812988Z" fill="white"/>
</mask>
<g mask="url(#mask0_482_988)">
<path d="M8.24531 0.812988C4.1854 0.812988 0.897949 4.10222 0.897949 8.16035C0.897949 12.2203 4.1854 15.5077 8.24531 15.5077C12.3035 15.5077 15.5927 12.2203 15.5927 8.16035C15.5927 4.10222 12.3035 0.812988 8.24531 0.812988ZM8.24531 14.0393C4.99702 14.0393 2.36635 11.4086 2.36635 8.16035C2.36635 4.91384 4.99702 2.28317 8.24531 2.28317C11.4918 2.28317 14.1225 4.91384 14.1225 8.16035C14.1225 11.4086 11.4918 14.0393 8.24531 14.0393Z" fill="#455D58"/>
</g>
<mask id="mask1_482_988" style="mask-type:luminance" maskUnits="userSpaceOnUse" x="0" y="15" width="49" height="10">
<path d="M0.897949 15.4658H48.0578V24.0093H0.897949V15.4658Z" fill="white"/>
</mask>
<g mask="url(#mask1_482_988)">
<path d="M47.6785 15.6734C47.1481 17.3376 45.7883 18.5871 44.1045 19.0018C42.2801 19.4574 40.3632 19.016 38.642 18.3397C37.7094 17.9623 36.8034 17.5209 35.8832 17.0902C34.9897 16.6755 34.0962 16.2323 33.1386 15.96C32.2576 15.7126 31.3267 15.6342 30.4457 15.8941C29.7462 16.1023 29.125 16.4921 28.543 16.9229C27.3647 17.8057 26.2772 18.9626 24.8141 19.34C23.3119 19.7315 21.7705 19.1851 20.3858 18.6387C18.9743 18.0798 17.5255 17.4159 15.9717 17.4034C14.2879 17.391 12.9672 18.3521 11.7124 19.3542C11.0521 19.8864 10.3917 20.4203 9.62636 20.8226C8.87525 21.2124 8.07252 21.4865 7.24488 21.6413C5.5878 21.9546 3.8275 21.7713 2.27366 21.0967C1.8981 20.9276 1.53501 20.7318 1.18615 20.5236C1.10783 20.472 1.04376 20.4844 0.977902 20.5236C0.940525 20.5627 0.901367 20.6144 0.901367 20.7051C0.901367 22.4619 0.901367 34.6185 0.901367 36.3877C0.901367 36.6351 0.901367 36.8825 0.901367 37.1281C0.901367 37.2331 0.992141 37.3239 1.09537 37.3239C1.51009 37.3239 1.93726 37.3239 2.35019 37.3239C3.47686 37.3239 4.61599 37.3239 5.74265 37.3239C7.42643 37.3239 9.09596 37.3239 10.7797 37.3239C12.8248 37.3239 14.8699 37.3239 16.9292 37.3239C19.1683 37.3239 21.395 37.3239 23.6358 37.3239C25.9016 37.3239 28.1799 37.3239 30.4457 37.3239C32.5424 37.3239 34.6533 37.3239 36.75 37.3239C38.537 37.3239 40.324 37.3239 42.0986 37.3239C43.3801 37.3239 44.6616 37.3239 45.9431 37.3239C46.5519 37.3239 47.1606 37.3364 47.7551 37.3239C47.7818 37.3239 47.8085 37.3239 47.8334 37.3239C47.9366 37.3239 48.0274 37.2331 48.0274 37.1281C48.0274 35.8929 48.0274 24.2435 48.0274 23.0083C48.0274 21.0433 48.0274 19.0676 48.0274 17.1044C48.0274 16.6488 48.0274 16.1931 48.0274 15.7392C48.0541 15.4918 47.7426 15.4651 47.6785 15.6734Z" fill="#455D58"/>
</g>
<path d="M1.06079 26.7524H7.67484C9.2447 26.7524 10.4942 27.071 11.4197 27.7065C12.3488 28.3383 12.8152 29.1873 12.8152 30.2553C12.8152 30.9868 12.6016 31.6293 12.1744 32.1846C11.7472 32.7364 11.1599 33.1173 10.4159 33.3309C11.2934 33.5071 11.9911 33.9147 12.509 34.5555C13.0305 35.1927 13.2922 35.9633 13.2922 36.8693C13.2922 38.0565 12.808 39.0016 11.8398 39.7029C10.8751 40.4006 9.56864 40.7495 7.91691 40.7495H1.06079V26.7524ZM4.5992 29.4721V32.3555H7.4755C7.99166 32.3555 8.4046 32.2256 8.7143 31.9639C9.02222 31.7041 9.17707 31.3481 9.17707 30.896C9.17707 30.4546 9.02222 30.1093 8.7143 29.8566C8.4046 29.6003 7.99166 29.4721 7.4755 29.4721H4.5992ZM4.5992 34.9114V38.0084H7.4755C8.13939 38.0084 8.6609 37.8696 9.0418 37.5884C9.42091 37.3089 9.61136 36.9227 9.61136 36.4279C9.61136 35.9633 9.42091 35.5949 9.0418 35.3244C8.6609 35.0503 8.13939 34.9114 7.4755 34.9114H4.5992Z" fill="#455D58"/>
<path d="M25.7044 38.1722H19.5887L18.5706 40.7495H14.9111L20.9485 26.7524H24.6079L30.5029 40.7495H26.7082L25.7044 38.1722ZM24.6649 35.4739L22.6643 30.2909L20.6281 35.4739H24.6649Z" fill="#455D58"/>
<path d="M40.0774 36.2285V40.7495H36.5389V36.3282L31.363 26.7524H34.9228L38.2975 32.8539L41.6009 26.7524H45.1536L40.0774 36.2285Z" fill="#455D58"/>
<path d="M6.43606 46.5381C8.52921 46.5381 10.3678 47.0578 11.9537 48.0973L10.6152 50.8739C9.87836 50.4467 9.09165 50.0979 8.25155 49.8273C7.415 49.5532 6.71017 49.4144 6.13704 49.4144C5.11183 49.4144 4.59922 49.7543 4.59922 50.4325C4.59922 50.8739 4.85019 51.2281 5.35389 51.4933C5.86116 51.7603 6.47878 51.9899 7.20497 52.1839C7.93117 52.3797 8.65736 52.6146 9.38355 52.8887C10.1097 53.1593 10.7256 53.6007 11.2346 54.213C11.7419 54.8252 11.9964 55.5995 11.9964 56.5339C11.9964 57.8831 11.4696 58.9332 10.4159 59.6879C9.3622 60.439 8.02016 60.8128 6.39335 60.8128C5.23464 60.8128 4.0884 60.6134 2.95461 60.2147C1.82438 59.8125 0.840106 59.2643 0 58.5701L1.37407 55.8362C2.08069 56.4485 2.91367 56.9522 3.87303 57.3455C4.83595 57.7353 5.69029 57.9294 6.43606 57.9294C7.00919 57.9294 7.45594 57.8279 7.77454 57.6232C8.09136 57.415 8.25155 57.1106 8.25155 56.7119C8.25155 56.3275 8.06822 56.0053 7.70334 55.7437C7.33669 55.4838 6.88103 55.2916 6.33639 55.167C5.78997 55.0388 5.19726 54.8679 4.55651 54.6544C3.91575 54.4408 3.32126 54.2094 2.77662 53.9566C2.2302 53.7003 1.77277 53.2981 1.40255 52.7463C1.03589 52.191 0.854345 51.5271 0.854345 50.7529C0.854345 49.4767 1.36339 48.4568 2.38505 47.6915C3.40492 46.9225 4.75585 46.5381 6.43606 46.5381Z" fill="#455D58"/>
<path d="M18.5468 60.6889H14.9941V46.6919H18.5468V60.6889Z" fill="#455D58"/>
<path d="M22.4104 46.6919H28.4264C30.6228 46.6919 32.4098 47.3398 33.7874 48.6355C35.1686 49.9277 35.8592 51.6115 35.8592 53.6904C35.8592 55.7551 35.1579 57.4388 33.7589 58.7382C32.3635 60.0392 30.5374 60.6889 28.284 60.6889H22.4104V46.6919ZM25.9631 49.5326V57.8482H28.5047C29.5958 57.8482 30.4911 57.4673 31.1888 56.702C31.8901 55.9331 32.2425 54.9363 32.2425 53.7118C32.2425 52.4872 31.874 51.4869 31.139 50.7073C30.4074 49.9242 29.4765 49.5326 28.3481 49.5326H25.9631Z" fill="#455D58"/>
<path d="M49.7526 49.497H42.3554V52.2736H49.0335V55.0716H42.3554V57.8909H49.9733V60.6889H38.8027V46.6919H49.7526V49.497Z" fill="#455D58"/>
</svg>
