<svg width="24" height="24" viewBox="0 0 24 24" fill="none" xmlns="http://www.w3.org/2000/svg">
<path d="M19.425 20.45C17.4917 20.45 15.571 19.9873 13.663 19.062C11.7544 18.1373 10.05 16.925 8.55002 15.425C7.05002 13.925 5.83769 12.225 4.91302 10.325C3.98769 8.425 3.52502 6.5 3.52502 4.55C3.52502 4.25 3.62502 4 3.82502 3.8C4.02502 3.6 4.27502 3.5 4.57502 3.5H7.82502C8.09169 3.5 8.32069 3.579 8.51202 3.737C8.70402 3.89567 8.82502 4.1 8.87502 4.35L9.45002 7.3C9.48336 7.55 9.47502 7.775 9.42502 7.975C9.37502 8.175 9.26669 8.35 9.10002 8.5L6.82502 10.75C7.60836 12.0833 8.54569 13.2917 9.63702 14.375C10.729 15.4583 11.9667 16.4 13.35 17.2L15.575 14.95C15.7417 14.7833 15.9377 14.6667 16.163 14.6C16.3877 14.5333 16.6167 14.5167 16.85 14.55L19.625 15.125C19.875 15.175 20.0794 15.2917 20.238 15.475C20.396 15.6583 20.475 15.8833 20.475 16.15V19.4C20.475 19.7 20.375 19.95 20.175 20.15C19.975 20.35 19.725 20.45 19.425 20.45Z" fill="#F9F7F2"/>
</svg>
