<svg width="20" height="20" viewBox="0 0 20 20" fill="none" xmlns="http://www.w3.org/2000/svg">
<path d="M16.1875 17.0417C14.5764 17.0417 12.9758 16.6561 11.3858 15.885C9.79528 15.1144 8.375 14.1042 7.125 12.8542C5.875 11.6042 4.86472 10.1875 4.09417 8.60416C3.32306 7.02082 2.9375 5.41666 2.9375 3.79166C2.9375 3.54166 3.02083 3.33332 3.1875 3.16666C3.35417 2.99999 3.5625 2.91666 3.8125 2.91666H6.52083C6.74306 2.91666 6.93389 2.98249 7.09333 3.11416C7.25333 3.24638 7.35417 3.41666 7.39583 3.62499L7.875 6.08332C7.90278 6.29166 7.89583 6.47916 7.85417 6.64582C7.8125 6.81249 7.72222 6.95832 7.58333 7.08332L5.6875 8.95832C6.34028 10.0694 7.12139 11.0764 8.03083 11.9792C8.94083 12.8819 9.97222 13.6667 11.125 14.3333L12.9792 12.4583C13.1181 12.3194 13.2814 12.2222 13.4692 12.1667C13.6564 12.1111 13.8472 12.0972 14.0417 12.125L16.3542 12.6042C16.5625 12.6458 16.7328 12.743 16.865 12.8958C16.9967 13.0486 17.0625 13.2361 17.0625 13.4583V16.1667C17.0625 16.4167 16.9792 16.625 16.8125 16.7917C16.6458 16.9583 16.4375 17.0417 16.1875 17.0417Z" fill="#455D58"/>
</svg>
