<svg width="196" height="42" viewBox="0 0 196 42" fill="none" xmlns="http://www.w3.org/2000/svg">
<path fill-rule="evenodd" clip-rule="evenodd" d="M66.9341 9.82812H69.8247V25.7812H66.9341V9.82812ZM68.3872 6.76562C67.8247 6.76562 67.3559 6.58594 66.9809 6.21875C66.6137 5.85547 66.4341 5.41406 66.4341 4.89062C66.4341 4.37109 66.6137 3.92969 66.9809 3.5625C67.3559 3.1875 67.8247 3 68.3872 3C68.9497 3 69.4106 3.17969 69.7778 3.53125C70.1528 3.875 70.3403 4.3125 70.3403 4.84375C70.3403 5.38672 70.1528 5.84375 69.7778 6.21875C69.4106 6.58594 68.9497 6.76562 68.3872 6.76562ZM64.2344 4.71881L55 25.7813H52.0156L42.75 4.71881H46L53.5781 22.0157L61.2344 4.71881H64.2344ZM78.2176 3.45319H75.3269V25.7813H78.2176V3.45319ZM83.7198 3.45319H86.6104V25.7813H83.7198V3.45319ZM102.988 11.3126C101.82 10.2305 100.132 9.68756 97.9252 9.68756C96.644 9.68756 95.4291 9.86725 94.2846 10.2188C93.1362 10.5626 92.1518 11.0704 91.3315 11.7344L92.5346 13.8907C93.1596 13.3712 93.9174 12.9532 94.8159 12.6407C95.7221 12.3282 96.6479 12.1719 97.5971 12.1719C99.0034 12.1719 100.066 12.5079 100.785 13.1719C101.503 13.8399 101.863 14.793 101.863 16.0313V16.6094H97.3002C95.0698 16.6094 93.4409 17.0391 92.4096 17.8907C91.3862 18.7344 90.8784 19.8594 90.8784 21.2657C90.8784 22.6719 91.4135 23.8087 92.4877 24.6719C93.558 25.5391 94.9916 25.9688 96.7846 25.9688C98.0034 25.9688 99.058 25.7735 99.9565 25.3751C100.851 24.9805 101.539 24.4141 102.019 23.6719V25.7813H104.753V16.1563C104.753 14.0118 104.164 12.3985 102.988 11.3126ZM100.128 23.0001C99.3237 23.4922 98.3705 23.7344 97.269 23.7344C96.1635 23.7344 95.3002 23.5079 94.6752 23.0469C94.0502 22.5782 93.7377 21.9454 93.7377 21.1407C93.7377 19.4962 94.9604 18.6719 97.4096 18.6719H101.863V20.9063C101.507 21.8126 100.929 22.5118 100.128 23.0001ZM116.664 26.0157C115.078 26.0157 113.547 25.7735 112.071 25.2813C110.602 24.793 109.446 24.1563 108.602 23.375L109.711 21.0313C110.512 21.75 111.539 22.3399 112.789 22.7969C114.047 23.2461 115.34 23.4688 116.664 23.4688C118.414 23.4688 119.715 23.1719 120.571 22.5782C121.434 21.9844 121.867 21.1993 121.867 20.2188C121.867 19.4922 121.633 18.9024 121.164 18.4532C120.696 18.0078 120.11 17.6641 119.414 17.4219C118.727 17.1719 117.75 16.9024 116.492 16.6094C114.899 16.2266 113.617 15.8438 112.649 15.4688C111.68 15.086 110.844 14.4961 110.149 13.7032C109.461 12.9141 109.117 11.8438 109.117 10.5C109.117 9.37503 109.406 8.35941 109.992 7.45316C110.586 6.54691 111.481 5.82425 112.68 5.28128C113.887 4.74222 115.387 4.46878 117.18 4.46878C118.418 4.46878 119.637 4.63284 120.836 4.95316C122.043 5.27737 123.078 5.74222 123.946 6.34378L122.961 8.75003C122.074 8.18753 121.125 7.76175 120.117 7.46878C119.117 7.17972 118.137 7.03128 117.18 7.03128C115.469 7.03128 114.188 7.34378 113.336 7.96878C112.481 8.59378 112.055 9.39847 112.055 10.375C112.055 11.0938 112.293 11.6836 112.774 12.1407C113.262 12.5899 113.86 12.9375 114.571 13.1875C115.289 13.4375 116.258 13.7032 117.477 13.9844C119.059 14.3711 120.328 14.7578 121.289 15.1407C122.258 15.5157 123.086 16.0938 123.774 16.875C124.469 17.6563 124.821 18.711 124.821 20.0313C124.821 21.1368 124.516 22.1485 123.914 23.0625C123.321 23.9688 122.406 24.6875 121.18 25.2188C119.961 25.75 118.453 26.0157 116.664 26.0157ZM131.673 9.82812H128.783V25.7812H131.673V9.82812ZM128.83 6.21875C129.205 6.58594 129.673 6.76562 130.236 6.76562C130.798 6.76562 131.259 6.58594 131.626 6.21875C132.001 5.84375 132.189 5.38672 132.189 4.84375C132.189 4.3125 132.001 3.875 131.626 3.53125C131.259 3.17969 130.798 3 130.236 3C129.673 3 129.205 3.1875 128.83 3.5625C128.462 3.92969 128.283 4.37109 128.283 4.89062C128.283 5.41406 128.462 5.85547 128.83 6.21875ZM151.598 17.8907C151.598 18.1212 151.574 18.4141 151.535 18.7657H138.598C138.773 20.1719 139.387 21.3047 140.441 22.1563C141.492 23.0118 142.805 23.4376 144.379 23.4376C146.285 23.4376 147.816 22.7969 148.973 21.5157L150.566 23.3751C149.848 24.2188 148.949 24.8672 147.879 25.3126C146.805 25.7501 145.605 25.9688 144.285 25.9688C142.598 25.9688 141.101 25.6251 139.801 24.9376C138.496 24.2422 137.488 23.2735 136.769 22.0313C136.058 20.7813 135.707 19.3751 135.707 17.8126C135.707 16.2618 136.051 14.8672 136.738 13.6251C137.433 12.3751 138.387 11.4063 139.598 10.7188C140.816 10.0313 142.183 9.68756 143.707 9.68756C145.238 9.68756 146.598 10.0313 147.785 10.7188C148.98 11.4063 149.914 12.3751 150.582 13.6251C151.258 14.8672 151.598 16.2891 151.598 17.8907ZM143.707 12.1251C142.32 12.1251 141.16 12.5469 140.223 13.3907C139.293 14.2266 138.754 15.3243 138.598 16.6876H148.832C148.664 15.3438 148.113 14.2501 147.176 13.4063C146.246 12.5547 145.09 12.1251 143.707 12.1251ZM156.398 25.4376C157.605 25.7891 158.859 25.9688 160.164 25.9688C162.289 25.9688 163.965 25.543 165.195 24.6876C166.433 23.836 167.055 22.6837 167.055 21.2344C167.055 20.1524 166.773 19.3126 166.211 18.7188C165.648 18.1172 164.969 17.6876 164.18 17.4376C163.387 17.1797 162.351 16.9376 161.07 16.7188C160.101 16.543 159.351 16.3868 158.82 16.2501C158.289 16.1055 157.84 15.8829 157.476 15.5782C157.121 15.2774 156.945 14.8672 156.945 14.3438C156.945 13.6876 157.262 13.1641 157.898 12.7657C158.543 12.3594 159.48 12.1563 160.711 12.1563C162.469 12.1563 164 12.5743 165.305 13.4063L166.539 11.1251C165.859 10.6876 164.992 10.3399 163.93 10.0782C162.867 9.82037 161.805 9.68756 160.742 9.68756C158.711 9.68756 157.09 10.1251 155.883 11.0001C154.683 11.8672 154.086 13.0235 154.086 14.4688C154.086 15.5938 154.375 16.4688 154.961 17.0938C155.543 17.711 156.242 18.1485 157.055 18.4063C157.867 18.668 158.914 18.8985 160.195 19.0938C161.133 19.2618 161.855 19.4141 162.367 19.5469C162.887 19.6719 163.312 19.8751 163.648 20.1563C163.992 20.4376 164.164 20.8204 164.164 21.2969C164.164 22.7462 162.898 23.4688 160.367 23.4688C159.344 23.4688 158.336 23.3204 157.336 23.0157C156.336 22.7149 155.48 22.3126 154.773 21.8126L153.57 24.0938C154.258 24.6368 155.199 25.086 156.398 25.4376ZM179.626 24.8438C179.208 25.211 178.688 25.4922 178.063 25.6875C177.438 25.875 176.798 25.9688 176.141 25.9688C174.536 25.9688 173.29 25.5391 172.407 24.6719C171.52 23.8086 171.079 22.5742 171.079 20.9688V12.2032H168.376V9.82816H171.079V6.34378H173.969V9.82816H178.548V12.2032H173.969V20.8438C173.969 21.711 174.18 22.375 174.61 22.8438C175.048 23.3047 175.665 23.5313 176.469 23.5313C177.352 23.5313 178.102 23.2774 178.719 22.7657L179.626 24.8438ZM193.986 11.3126C192.818 10.2305 191.13 9.68756 188.923 9.68756C187.642 9.68756 186.427 9.86725 185.283 10.2188C184.134 10.5626 183.15 11.0704 182.33 11.7344L183.533 13.8907C184.158 13.3712 184.916 12.9532 185.814 12.6407C186.72 12.3282 187.646 12.1719 188.595 12.1719C190.002 12.1719 191.064 12.5079 191.783 13.1719C192.502 13.8399 192.861 14.793 192.861 16.0313V16.6094H188.298C186.068 16.6094 184.439 17.0391 183.408 17.8907C182.384 18.7344 181.877 19.8594 181.877 21.2657C181.877 22.6719 182.412 23.8087 183.486 24.6719C184.556 25.5391 185.99 25.9688 187.783 25.9688C189.002 25.9688 190.056 25.7735 190.955 25.3751C191.849 24.9805 192.537 24.4141 193.017 23.6719V25.7813H195.752V16.1563C195.752 14.0118 195.162 12.3985 193.986 11.3126ZM191.127 23.0001C190.322 23.4922 189.369 23.7344 188.267 23.7344C187.162 23.7344 186.298 23.5079 185.673 23.0469C185.048 22.5782 184.736 21.9454 184.736 21.1407C184.736 19.4962 185.959 18.6719 188.408 18.6719H192.861V20.9063C192.505 21.8126 191.927 22.5118 191.127 23.0001Z" fill="#F9F7F2"/>
<path fill-rule="evenodd" clip-rule="evenodd" d="M99.9539 38.2951C99.3367 38.2951 98.782 38.1623 98.282 37.8888C97.782 37.6076 97.3914 37.2287 97.1102 36.7482C96.8289 36.2716 96.6883 35.7326 96.6883 35.1388C96.6883 34.5373 96.8289 33.9943 97.1102 33.5138C97.3992 33.0373 97.7977 32.6623 98.2977 32.3888C98.7977 32.1193 99.3524 31.9826 99.9695 31.9826C100.47 31.9826 100.927 32.0724 101.345 32.2482C101.759 32.4162 102.11 32.6662 102.391 32.9982L101.657 33.7013C101.22 33.2248 100.673 32.9826 100.016 32.9826C99.5984 32.9826 99.2234 33.0763 98.8914 33.2638C98.5555 33.4435 98.2977 33.6974 98.1102 34.0294C97.9227 34.3537 97.8289 34.7248 97.8289 35.1388C97.8289 35.5451 97.9227 35.9162 98.1102 36.2482C98.2977 36.5724 98.5555 36.8263 98.8914 37.0138C99.2234 37.2013 99.5984 37.2951 100.016 37.2951C100.673 37.2951 101.22 37.0529 101.657 36.5607L102.391 37.2638C102.11 37.5998 101.759 37.8537 101.345 38.0294C100.927 38.2052 100.462 38.2951 99.9539 38.2951ZM73.4082 35.0138C73.752 35.1193 74.0215 35.3029 74.2207 35.5607C74.416 35.8224 74.5176 36.1466 74.5176 36.5294C74.5176 37.0607 74.3066 37.4747 73.8926 37.7638C73.4863 38.0568 72.8926 38.2013 72.1113 38.2013H69.0645V32.0607H71.9395C72.6582 32.0607 73.209 32.2091 73.5957 32.4982C73.9902 32.7794 74.1895 33.1661 74.1895 33.6544C74.1895 33.9669 74.1191 34.2404 73.9863 34.4669C73.8496 34.6974 73.6582 34.881 73.4082 35.0138ZM70.2051 32.9669V34.6544H71.8145C72.209 34.6544 72.5098 34.5841 72.7207 34.4357C72.9395 34.2911 73.0488 34.0841 73.0488 33.8107C73.0488 33.5294 72.9395 33.3224 72.7207 33.1857C72.5098 33.0411 72.209 32.9669 71.8145 32.9669H70.2051ZM72.0332 37.3107C72.916 37.3107 73.3613 37.0138 73.3613 36.42C73.3613 35.8263 72.916 35.5294 72.0332 35.5294H70.2051V37.3107H72.0332ZM83.3128 37.2482V38.2013H78.719V32.0607H83.1878V33.0138H79.8596V34.6232H82.8128V35.5607H79.8596V37.2482H83.3128ZM87.8732 38.2013L88.4826 36.7794H91.5451L92.1701 38.2013H93.3576L90.592 32.0607H89.467L86.7014 38.2013H87.8732ZM90.0139 33.2013L91.1701 35.8888H88.8732L90.0139 33.2013ZM111.936 38.2013V32.0607H110.795V34.5919H107.623V32.0607H106.482V38.2013H107.623V35.5763H110.795V38.2013H111.936ZM125.987 38.2013L124.722 36.4044C124.667 36.4161 124.589 36.42 124.487 36.42H123.112V38.2013H121.972V32.0607H124.487C125.019 32.0607 125.48 32.1505 125.878 32.3263C126.273 32.506 126.573 32.7599 126.784 33.0919C126.991 33.4161 127.097 33.8029 127.097 34.2482C127.097 34.7091 126.98 35.1036 126.753 35.4357C126.534 35.7716 126.214 36.0216 125.8 36.1857L127.206 38.2013H125.987ZM125.956 34.2482C125.956 33.8536 125.823 33.5529 125.566 33.3419C125.316 33.1349 124.941 33.0294 124.441 33.0294H123.112V35.4825H124.441C124.941 35.4825 125.316 35.381 125.566 35.17C125.823 34.9513 125.956 34.6466 125.956 34.2482ZM135.957 38.2013V37.2482H132.504V35.5607H135.457V34.6232H132.504V33.0138H135.832V32.0607H131.364V38.2013H135.957ZM142.111 38.2951C141.643 38.2951 141.182 38.2248 140.736 38.0919C140.299 37.9591 139.955 37.7755 139.705 37.5451L140.096 36.6701C140.346 36.8693 140.651 37.0294 141.018 37.1544C141.381 37.2794 141.744 37.3419 142.111 37.3419C142.568 37.3419 142.908 37.2716 143.127 37.1232C143.354 36.9787 143.471 36.7873 143.471 36.5451C143.471 36.3693 143.408 36.2248 143.283 36.1076C143.158 35.9943 142.994 35.9044 142.799 35.8419C142.611 35.7794 142.35 35.7091 142.018 35.6232C141.549 35.5099 141.166 35.4005 140.877 35.2951C140.596 35.1818 140.35 35.0099 140.143 34.7794C139.932 34.5412 139.83 34.2169 139.83 33.8107C139.83 33.4669 139.916 33.1623 140.096 32.8888C140.283 32.6076 140.565 32.3888 140.94 32.2326C141.315 32.0685 141.768 31.9826 142.299 31.9826C142.674 31.9826 143.041 32.0294 143.408 32.1232C143.772 32.2169 144.084 32.3498 144.346 32.5138L143.986 33.4044C143.713 33.2482 143.432 33.131 143.143 33.0451C142.85 32.963 142.568 32.9201 142.299 32.9201C141.838 32.9201 141.502 32.9982 141.283 33.1544C141.065 33.3029 140.955 33.506 140.955 33.7638C140.955 33.9318 141.018 34.0724 141.143 34.1857C141.276 34.3029 141.44 34.3888 141.627 34.4513C141.822 34.5138 142.088 34.588 142.424 34.6701C142.869 34.7755 143.24 34.8849 143.533 34.9982C143.822 35.1154 144.072 35.2912 144.283 35.5294C144.49 35.7599 144.596 36.0724 144.596 36.4669C144.596 36.8029 144.502 37.1076 144.315 37.3888C144.135 37.6623 143.861 37.881 143.486 38.0451C143.111 38.2091 142.651 38.2951 142.111 38.2951ZM149.891 37.8888C150.391 38.1623 150.953 38.2951 151.578 38.2951C152.203 38.2951 152.766 38.1623 153.266 37.8888C153.774 37.6076 154.172 37.2287 154.453 36.7482C154.742 36.2716 154.891 35.7326 154.891 35.1388C154.891 34.5373 154.742 33.9943 154.453 33.5138C154.172 33.0373 153.774 32.6623 153.266 32.3888C152.766 32.1193 152.203 31.9826 151.578 31.9826C150.953 31.9826 150.391 32.1193 149.891 32.3888C149.391 32.6623 148.992 33.0373 148.703 33.5138C148.422 33.9943 148.282 34.5373 148.282 35.1388C148.282 35.7326 148.422 36.2716 148.703 36.7482C148.992 37.2287 149.391 37.6076 149.891 37.8888ZM152.672 37.0138C152.348 37.2013 151.985 37.2951 151.578 37.2951C151.172 37.2951 150.801 37.2013 150.469 37.0138C150.145 36.8263 149.891 36.5724 149.703 36.2482C149.516 35.9162 149.422 35.5451 149.422 35.1388C149.422 34.7248 149.516 34.3537 149.703 34.0294C149.891 33.6974 150.145 33.4435 150.469 33.2638C150.801 33.0763 151.172 32.9826 151.578 32.9826C151.985 32.9826 152.348 33.0763 152.672 33.2638C153.004 33.4435 153.266 33.6974 153.453 34.0294C153.641 34.3537 153.735 34.7248 153.735 35.1388C153.735 35.5451 153.641 35.9162 153.453 36.2482C153.266 36.5724 153.004 36.8263 152.672 37.0138ZM163.099 38.2013L161.833 36.4044C161.778 36.4161 161.7 36.42 161.599 36.42H160.224V38.2013H159.083V32.0607H161.599C162.13 32.0607 162.591 32.1505 162.989 32.3263C163.384 32.506 163.685 32.7599 163.896 33.0919C164.103 33.4161 164.208 33.8029 164.208 34.2482C164.208 34.7091 164.091 35.1036 163.864 35.4357C163.646 35.7716 163.325 36.0216 162.911 36.1857L164.318 38.2013H163.099ZM163.068 34.2482C163.068 33.8536 162.935 33.5529 162.677 33.3419C162.427 33.1349 162.052 33.0294 161.552 33.0294H160.224V35.4825H161.552C162.052 35.4825 162.427 35.381 162.677 35.17C162.935 34.9513 163.068 34.6466 163.068 34.2482ZM167.678 33.0294H169.709V38.2013H170.85V33.0294H172.881V32.0607H167.678V33.0294Z" fill="#F9F7F2"/>
<path d="M0.798611 37.7955L16.5662 35.4884V41.3164C16.5662 41.6934 16.8803 42 17.2649 42C17.6494 42 17.961 41.6934 17.961 41.3164V35.4884L33.7311 37.7955C34.0051 37.8307 34.2564 37.7176 34.4046 37.509C34.5579 37.2928 34.5705 37.0089 34.4373 36.7802L27.8729 25.5086H31.3235C31.5824 25.5086 31.8161 25.3704 31.9367 25.1492C32.0599 24.9256 32.0473 24.6541 31.9015 24.443L23.6533 12.4502H25.5483C25.8121 12.4502 26.0484 12.307 26.169 12.0783C26.2922 11.8471 26.2695 11.5731 26.1112 11.362L17.8027 0.251316C17.7901 0.233724 17.775 0.218645 17.7549 0.19854C17.7373 0.183461 17.7223 0.168382 17.6921 0.14325L17.5237 0.0477501C17.5237 0.0477501 17.481 0.0351845 17.4559 0.0276448L17.3377 0.00502633C17.3377 0.00502633 17.2875 0 17.2649 0C17.2473 0 17.2297 0.00251333 17.2045 0.00502633C17.1794 0.00502633 17.1568 0.00753981 17.1317 0.0125658C17.1166 0.0150795 17.1015 0.0201055 17.0538 0.0326711C17.0362 0.0376978 17.0211 0.045237 16.996 0.0552896L16.9482 0.0753949C16.9482 0.0753949 16.9005 0.100526 16.8753 0.118119L16.8351 0.148277C16.8351 0.148277 16.7924 0.180948 16.7748 0.201053C16.7597 0.213619 16.7446 0.228698 16.7019 0.278961L8.41852 11.362C8.2602 11.5731 8.24009 11.8471 8.36072 12.0783C8.47884 12.3095 8.71759 12.4502 8.98147 12.4502H10.8764L2.62819 24.4455C2.48243 24.6567 2.46735 24.9256 2.5905 25.1492C2.71113 25.3704 2.94737 25.5086 3.20622 25.5086H6.6568L0.0898988 36.7827C-0.0407857 37.0089 -0.0282206 37.2928 0.12257 37.509C0.270846 37.7201 0.51965 37.8357 0.798611 37.7955ZM12.7663 12.1486C12.9121 11.9375 12.9246 11.6661 12.8015 11.4424C12.6809 11.2213 12.4446 11.0831 12.1883 11.0831H10.3537L17.2649 1.83964L24.1736 11.0831H22.3415C22.0851 11.0831 21.8514 11.2213 21.7282 11.4424C21.6051 11.6661 21.6177 11.9375 21.7634 12.1486L30.0141 24.1415H26.6716C26.4253 24.1415 26.1966 24.2721 26.071 24.4807C25.9453 24.6893 25.9428 24.9507 26.066 25.1643L32.5147 36.2373L17.961 34.1062V32.8898L21.6177 29.9041C21.7609 29.7885 21.8489 29.6202 21.864 29.4392C21.8815 29.2557 21.8212 29.0773 21.7006 28.9391C21.4618 28.6652 21.0095 28.6249 20.723 28.8562L17.961 31.1105V26.7401L21.6177 23.7544C21.7609 23.6388 21.8489 23.4704 21.864 23.2895C21.8815 23.1085 21.8237 22.9301 21.7031 22.7894C21.4644 22.5129 21.007 22.4752 20.723 22.7039L17.961 24.9607V20.5904L21.6152 17.6072C21.7609 17.4891 21.8489 17.3232 21.864 17.1398C21.8815 16.9563 21.8237 16.7804 21.7031 16.6397C21.4644 16.3632 21.007 16.3255 20.723 16.5567L17.961 18.811V12.5256C17.961 12.1486 17.6494 11.8445 17.2649 11.8445C16.8803 11.8445 16.5662 12.1486 16.5662 12.5256V18.811L13.8067 16.5567C13.5228 16.3255 13.0629 16.3657 12.8266 16.6397C12.706 16.7804 12.6482 16.9588 12.6658 17.1423C12.6809 17.3232 12.7688 17.4866 12.9121 17.6072L16.5662 20.5904V24.9607L13.8067 22.7064C13.5228 22.4727 13.0629 22.5154 12.8266 22.7894C12.706 22.9301 12.6482 23.1085 12.6658 23.292C12.6809 23.473 12.7688 23.6388 12.9121 23.7569L16.5662 26.7401V31.1105L13.8042 28.8562C13.5202 28.6275 13.0654 28.6652 12.8266 28.9391C12.706 29.0773 12.6507 29.2557 12.6658 29.4392C12.6809 29.6202 12.7688 29.7885 12.9121 29.9067L16.5662 32.8898V34.1087L2.01498 36.2373L8.46376 25.1643C8.58691 24.9532 8.58439 24.6893 8.45874 24.4807C8.33308 24.2721 8.10187 24.1415 7.85809 24.1415H4.51558L12.7663 12.1486Z" fill="#F9F7F2"/>
</svg>
