<svg width="20" height="20" viewBox="0 0 20 20" fill="none" xmlns="http://www.w3.org/2000/svg">
<path d="M2.8125 15.1667C2.63194 15.1667 2.48278 15.1042 2.365 14.9792C2.24667 14.8542 2.1875 14.7083 2.1875 14.5417C2.1875 14.3611 2.24667 14.212 2.365 14.0942C2.48278 13.9758 2.63194 13.9167 2.8125 13.9167H17.1875C17.3681 13.9167 17.5175 13.9758 17.6358 14.0942C17.7536 14.212 17.8125 14.3611 17.8125 14.5417C17.8125 14.7083 17.7536 14.8542 17.6358 14.9792C17.5175 15.1042 17.3681 15.1667 17.1875 15.1667H2.8125ZM2.91667 12.9167V12.3958C2.91667 10.6875 3.46889 9.19445 4.57333 7.91668C5.67722 6.6389 7.06944 5.85418 8.75 5.56251V5.27084C8.75 4.93751 8.87167 4.64584 9.115 4.39584C9.35778 4.14584 9.65278 4.02084 10 4.02084C10.3472 4.02084 10.6422 4.14584 10.885 4.39584C11.1283 4.64584 11.25 4.93751 11.25 5.27084V5.56251C12.9444 5.85418 14.3403 6.6389 15.4375 7.91668C16.5347 9.19445 17.0833 10.6875 17.0833 12.3958V12.9167H2.91667Z" fill="#455D58"/>
</svg>
