<svg width="24" height="24" viewBox="0 0 24 24" fill="none" xmlns="http://www.w3.org/2000/svg">
<path d="M3.375 18.2002C3.15833 18.2002 2.97933 18.1252 2.838 17.9752C2.696 17.8252 2.625 17.6502 2.625 17.4502C2.625 17.2335 2.696 17.0545 2.838 16.9132C2.97933 16.7712 3.15833 16.7002 3.375 16.7002H20.625C20.8417 16.7002 21.021 16.7712 21.163 16.9132C21.3043 17.0545 21.375 17.2335 21.375 17.4502C21.375 17.6502 21.3043 17.8252 21.163 17.9752C21.021 18.1252 20.8417 18.2002 20.625 18.2002H3.375ZM3.5 15.5002V14.8752C3.5 12.8252 4.16267 11.0335 5.488 9.5002C6.81267 7.96686 8.48333 7.0252 10.5 6.6752V6.3252C10.5 5.9252 10.646 5.5752 10.938 5.2752C11.2293 4.9752 11.5833 4.8252 12 4.8252C12.4167 4.8252 12.7707 4.9752 13.062 5.2752C13.354 5.5752 13.5 5.9252 13.5 6.3252V6.6752C15.5333 7.0252 17.2083 7.96686 18.525 9.5002C19.8417 11.0335 20.5 12.8252 20.5 14.8752V15.5002H3.5Z" fill="#F9F7F2"/>
</svg>
