<svg width="80" height="66" viewBox="0 0 80 66" fill="none" xmlns="http://www.w3.org/2000/svg">
<path d="M40.0579 28.6378C45.0958 28.6378 49.196 24.5422 49.196 19.5074C49.196 14.4726 45.0958 10.377 40.0579 10.377C35.0201 10.377 30.9214 14.4726 30.9214 19.5074C30.9214 24.5422 35.0201 28.6378 40.0579 28.6378ZM40.0579 12.0995C44.146 12.0995 47.4719 15.4224 47.4719 19.5074C47.4719 23.5924 44.146 26.9153 40.0579 26.9153C35.9699 26.9153 32.6455 23.5924 32.6455 19.5074C32.6455 15.4224 35.9699 12.0995 40.0579 12.0995Z" fill="#455D58"/>
<mask id="mask0_482_807" style="mask-type:luminance" maskUnits="userSpaceOnUse" x="39" y="0" width="2" height="7">
<path d="M39.0242 0H40.9788V6.1114H39.0242V0Z" fill="white"/>
</mask>
<g mask="url(#mask0_482_807)">
<path d="M40.0579 5.89739C40.5344 5.89739 40.9207 5.51256 40.9207 5.03611V0.902292C40.9207 0.425841 40.5344 0.0410156 40.0579 0.0410156C39.5815 0.0410156 39.1967 0.425841 39.1967 0.902292V5.03611C39.1967 5.51256 39.5815 5.89739 40.0579 5.89739Z" fill="#455D58"/>
</g>
<path d="M53.678 19.5078C53.678 19.9827 54.0628 20.369 54.5393 20.369H58.6777C59.1541 20.369 59.5389 19.9827 59.5389 19.5078C59.5389 19.0328 59.1541 18.6465 58.6777 18.6465H54.5393C54.0628 18.6465 53.678 19.0328 53.678 19.5078Z" fill="#455D58"/>
<path d="M21.4382 20.369H25.5766C26.0515 20.369 26.4379 19.9827 26.4379 19.5078C26.4379 19.0328 26.0515 18.6465 25.5766 18.6465H21.4382C20.9633 18.6465 20.5769 19.0328 20.5769 19.5078C20.5769 19.9827 20.9633 20.369 21.4382 20.369Z" fill="#455D58"/>
<path d="M50.2986 10.1368C50.5185 10.1368 50.7399 10.0528 50.9079 9.88481L53.8338 6.96044C54.1713 6.62448 54.1713 6.07931 53.8338 5.74335C53.4963 5.40586 52.9527 5.40586 52.6152 5.74335L49.6878 8.66619C49.3518 9.00215 49.3518 9.54732 49.6878 9.88481C49.8573 10.0528 50.0772 10.1368 50.2986 10.1368Z" fill="#455D58"/>
<path d="M29.2095 9.88481C29.3775 10.0528 29.5974 10.1368 29.8188 10.1368C30.0387 10.1368 30.2602 10.0528 30.4281 9.88481C30.7641 9.54732 30.7641 9.00368 30.4281 8.66619L27.5022 5.74335C27.1648 5.40586 26.6196 5.40586 26.2836 5.74335C25.9461 6.07931 25.9461 6.62448 26.2836 6.96044L29.2095 9.88481Z" fill="#455D58"/>
<mask id="mask1_482_807" style="mask-type:luminance" maskUnits="userSpaceOnUse" x="18" y="29" width="44" height="7">
<path d="M18.5077 29.959H61.6082V35.4321H18.5077V29.959Z" fill="white"/>
</mask>
<g mask="url(#mask1_482_807)">
<path d="M19.3705 31.807C21.1358 31.807 21.9849 32.4851 22.9668 33.2715C24.0464 34.1343 25.2712 35.1147 27.6412 35.1147C30.0128 35.1147 31.2375 34.1343 32.3171 33.2715C33.3006 32.4851 34.1496 31.807 35.9165 31.807C37.6818 31.807 38.5308 32.4851 39.5128 33.2715C40.5939 34.1343 41.8171 35.1147 44.1872 35.1147C46.5603 35.1147 47.785 34.1343 48.8662 33.2715C49.8496 32.4851 50.7002 31.807 52.467 31.807C54.2339 31.807 55.0845 32.4851 56.0679 33.2715C57.1476 34.1343 58.3738 35.1147 60.7454 35.1147C61.2218 35.1147 61.6066 34.7283 61.6066 34.2534C61.6066 33.777 61.2218 33.3906 60.7454 33.3906C58.9785 33.3906 58.1279 32.7126 57.1445 31.9261C56.0633 31.0633 54.8386 30.0845 52.467 30.0845C50.0939 30.0845 48.8692 31.0633 47.788 31.9261C46.8046 32.7126 45.9555 33.3906 44.1872 33.3906C42.4219 33.3906 41.5728 32.7126 40.5909 31.9261C39.5112 31.0633 38.2865 30.0845 35.9165 30.0845C33.5449 30.0845 32.3202 31.0633 31.2405 31.9261C30.2571 32.7126 29.408 33.3906 27.6412 33.3906C25.8759 33.3906 25.0268 32.7126 24.0449 31.9261C22.9637 31.0633 21.7405 30.0845 19.3705 30.0845C18.894 30.0845 18.5077 30.4693 18.5077 30.9457C18.5077 31.4207 18.894 31.807 19.3705 31.807Z" fill="#455D58"/>
</g>
<mask id="mask2_482_807" style="mask-type:luminance" maskUnits="userSpaceOnUse" x="18" y="36" width="44" height="6">
<path d="M18.5077 36.2129H61.6082V41.3408H18.5077V36.2129Z" fill="white"/>
</mask>
<g mask="url(#mask2_482_807)">
<path d="M60.7469 39.5948C58.9785 39.5948 58.1295 38.9152 57.146 38.1288C56.0648 37.266 54.8401 36.2871 52.467 36.2871C50.0955 36.2871 48.8707 37.266 47.7896 38.1288C46.8061 38.9152 45.9555 39.5948 44.1887 39.5948C42.4234 39.5948 41.5743 38.9152 40.5909 38.1288C39.5112 37.266 38.288 36.2871 35.9165 36.2871C33.5464 36.2871 32.3217 37.266 31.2421 38.1288C30.2571 38.9152 29.408 39.5948 27.6427 39.5948C25.8774 39.5948 25.0283 38.9152 24.0449 38.1288C22.9637 37.266 21.7405 36.2871 19.3705 36.2871C18.894 36.2871 18.5077 36.6719 18.5077 37.1484C18.5077 37.6248 18.894 38.0097 19.3705 38.0097C21.1358 38.0097 21.9849 38.6877 22.9668 39.4741C24.0464 40.3369 25.2712 41.3173 27.6412 41.3173C30.0128 41.3173 31.2375 40.3369 32.3171 39.4741C33.3006 38.6877 34.1496 38.0097 35.9165 38.0097C37.6818 38.0097 38.5308 38.6877 39.5128 39.4741C40.5939 40.3369 41.8171 41.3173 44.1872 41.3173C46.5603 41.3173 47.785 40.3369 48.8662 39.4741C49.8496 38.6877 50.7002 38.0097 52.467 38.0097C54.2339 38.0097 55.0845 38.6877 56.0679 39.4741C57.1476 40.3369 58.3738 41.3173 60.7454 41.3173C61.2218 41.3173 61.6066 40.9325 61.6066 40.4561C61.6066 39.9796 61.2233 39.5948 60.7469 39.5948Z" fill="#455D58"/>
</g>
<path d="M0 55.2077C0 56.0125 0.543643 56.4263 1.45837 56.4263H8.72272C9.94133 56.4263 11.9632 56.1866 11.9632 53.8807C11.9632 49.9667 4.78589 49.5529 4.78589 47.2913C4.78589 46.682 5.54638 46.4422 6.19997 46.4422C6.9177 46.4422 7.56977 46.7034 7.56977 47.2042C7.59114 47.9647 7.13455 48.487 7.13455 48.487C7.13455 48.487 7.91794 49.249 9.46183 49.249C10.9416 49.249 11.8548 48.5527 11.8548 47.4425C11.8548 45.7031 10.2025 45.529 8.72272 45.5504C8.35316 45.5504 8.00498 45.5504 7.70109 45.5504H2.67545C1.26137 45.5504 0.0442854 46.2254 0.0442854 47.8991C0.0442854 51.2281 6.69933 51.4022 6.69933 54.099C6.69933 55.0565 6.26563 55.5345 5.72046 55.5345C5.0684 55.5345 4.59042 54.6213 4.59042 53.7295C4.59042 51.9672 3.00225 51.5763 1.7195 51.5977C0.82768 51.5977 0.0656648 51.7718 0.0656648 51.7931C0.0656648 51.7931 0.41384 52.207 0.41384 52.9888C0.41384 53.9677 0 54.4258 0 55.2077Z" fill="#455D58"/>
<path d="M17.4018 56.4048H19.5107C20.4254 56.4048 21.1202 56.1865 21.6868 55.8383C21.8822 56.2307 22.209 56.4262 22.7298 56.4262H26.1672C26.1672 54.7296 25.7534 53.7721 25.7534 51.8144C25.7534 50.0964 26.2543 49.4444 26.2543 47.5523C26.2543 47.5523 26.2543 46.0512 25.2311 45.5503H21.36C21.36 45.5503 21.36 45.5503 21.3814 45.5503H21.36C21.36 45.5503 22.209 46.4421 22.209 48.3998C22.209 50.9226 20.8163 55.4916 19.1625 55.4916C17.64 55.4916 17.7927 52.8376 17.7927 52.1198C17.7927 49.5085 18.7288 48.7694 18.7288 47.2255C18.7288 45.8985 17.6843 45.3105 16.3359 45.3105C16.3359 45.3105 13.8986 45.3335 13.3336 46.3994C14.1827 46.3994 13.2679 49.1619 13.2679 51.8144C13.2679 54.7724 15.4211 56.4048 17.4018 56.4048Z" fill="#455D58"/>
<path d="M32.387 56.4272C32.387 50.9892 32.5611 46.4645 34.5845 46.4645C36.0856 46.4645 35.9329 49.1185 35.9329 49.8577C35.9329 52.469 34.9983 53.1867 34.9983 54.7306C34.9983 56.0576 36.0413 56.644 37.4126 56.644C37.4126 56.644 39.827 56.644 40.392 55.5567C39.5444 55.5567 40.4576 52.7942 40.4576 50.1417C40.4576 47.1822 38.3045 45.5513 36.3467 45.5513H34.2149C33.3231 45.5513 32.6267 45.791 32.0617 46.1392C31.8663 45.8567 31.6693 45.6597 31.4524 45.5513H27.5583C27.5583 45.5513 28.4074 46.4431 28.4074 48.3794C28.4074 51.1419 27.5583 53.2295 27.5583 56.4272H32.387Z" fill="#455D58"/>
<path d="M41.7615 55.2077C41.7615 56.0125 42.3051 56.4263 43.2198 56.4263H50.4842C51.7028 56.4263 53.7247 56.1866 53.7247 53.8807C53.7247 49.9667 46.5474 49.5529 46.5474 47.2913C46.5474 46.682 47.3079 46.4422 47.9614 46.4422C48.6792 46.4422 49.3312 46.7034 49.3312 47.2042C49.3526 47.9647 48.896 48.487 48.896 48.487C48.896 48.487 49.6794 49.249 51.2233 49.249C52.703 49.249 53.6162 48.5527 53.6162 47.4425C53.6162 45.7031 51.9639 45.529 50.4842 45.5504C50.1146 45.5504 49.7665 45.5504 49.4626 45.5504H44.4369C43.0228 45.5504 41.8058 46.2254 41.8058 47.8991C41.8058 51.2281 48.4608 51.4022 48.4608 54.099C48.4608 55.0565 48.0271 55.5345 47.4819 55.5345C46.8299 55.5345 46.3519 54.6213 46.3519 53.7295C46.3519 51.9672 44.7637 51.5763 43.481 51.5977C42.5892 51.5977 41.8271 51.7718 41.8271 51.7931C41.8271 51.7931 42.1753 52.207 42.1753 52.9888C42.1753 53.9677 41.7615 54.4258 41.7615 55.2077Z" fill="#455D58"/>
<path d="M55.0295 54.5779C55.0295 55.3399 55.3563 56.4272 56.575 56.4272H63.992C65.1221 56.4272 66.8416 55.7965 66.8416 53.8174C66.8416 52.6202 66.1452 51.5985 64.5784 51.5985C62.9689 51.5985 61.9472 52.5331 61.9472 52.5331C61.9472 52.5331 62.4695 53.0126 62.4695 54.2297C62.4695 55.0345 62.0999 55.514 61.4464 55.514C60.0766 55.514 59.3588 53.5776 59.3588 51.0763C59.3588 50.7067 59.3802 50.3799 59.3802 50.076H60.3377C61.7945 50.076 63.905 50.076 64.4914 50.076C65.8841 50.076 66.8186 49.5095 66.8186 48.2267C66.8186 46.2262 65.3404 45.5513 63.9706 45.5513H55.0295C55.0295 45.5513 55.8129 46.5088 55.8129 48.6406C55.8129 51.6199 55.0295 53.1867 55.0295 54.5779ZM59.4245 49.1628C59.5986 46.8997 60.1193 46.4645 60.9241 46.4645C61.6204 46.4645 62.077 47.4433 62.077 48.0526C62.077 49.1399 61.2081 49.1628 60.3591 49.1628C60.3377 49.1628 60.2934 49.1628 60.272 49.1628H59.4245Z" fill="#455D58"/>
<path d="M68.1453 54.0556C68.1453 55.5354 69.2768 56.644 71.1903 56.644C73.6916 56.644 74.6277 55.8622 74.6277 55.8622C74.6277 55.8622 73.345 55.3827 73.345 53.8815C73.345 51.6856 75.15 50.3372 75.7593 48.9017C75.8021 50.9236 75.0843 53.6219 75.0843 54.752C75.0843 55.7308 75.4753 56.4272 76.7809 56.4272H80V56.2317C80 54.8176 79.348 53.9044 79.348 50.0546C79.348 47.4662 77.5857 45.5513 74.8232 45.5513H71.9737C69.3196 45.5513 68.1453 46.7699 68.1453 48.074C68.1453 49.2926 68.9073 49.6408 69.8205 49.6408C69.8205 49.6408 71.2132 49.6408 72.9739 48.7276C72.9739 48.1183 72.192 46.4431 74.0841 46.4431C74.9316 46.4431 75.3882 46.944 75.5852 47.6831C74.9545 49.7706 68.1453 49.989 68.1453 54.0556Z" fill="#455D58"/>
<path d="M7.03842 65.565C7.03842 65.3039 6.77729 63.5538 6.77729 62.5322C6.77729 62.1077 6.95902 61.5549 7.45837 61.5549C7.77448 61.5549 7.97453 61.7916 7.97453 62.3077C7.97453 63.14 6.95902 62.5994 6.95902 63.34C6.95902 64.1738 8.60063 63.3706 8.60063 64.1677C8.60063 64.4655 8.34561 64.5556 8.06005 64.5556C7.50571 64.5556 7.45226 64.015 7.45226 64.015C7.45226 64.015 7.13005 64.3494 7.13005 64.8473C7.13005 65.565 7.82793 65.6261 8.27842 65.6261C8.91674 65.6261 9.95516 65.4306 9.95516 64.4105C9.95516 63.5477 9.16566 63.4072 8.4296 63.4072C8.08448 63.4072 7.75005 63.4378 7.51793 63.4378C7.3301 63.4378 7.20793 63.4133 7.20793 63.34C7.20793 63.2499 7.36064 63.2377 7.59123 63.2377C7.71951 63.2377 7.86458 63.2377 8.01729 63.2438C8.64339 63.2438 9.39625 63.1644 9.39625 62.3933C9.39625 61.4449 8.5029 61.3105 7.65842 61.3105H5.45178C5.45178 61.3105 5.74956 61.6816 5.74956 62.4956C5.74956 63.65 5.45178 64.2227 5.45178 65.565H7.03842Z" fill="#455D58"/>
<path d="M12.7502 65.0481C12.7502 65.2604 12.8419 65.5643 13.1824 65.5643H15.2547C15.5708 65.5643 16.0503 65.3887 16.0503 64.8343C16.0503 64.5014 15.8563 64.2159 15.4181 64.2159C14.9691 64.2159 14.6835 64.477 14.6835 64.477C14.6835 64.477 14.8286 64.6099 14.8286 64.9504C14.8286 65.1749 14.7263 65.3093 14.543 65.3093C14.1613 65.3093 13.9597 64.7687 13.9597 64.0693C13.9597 63.9654 13.9658 63.8753 13.9658 63.7898H14.233C14.6408 63.7898 15.2302 63.7898 15.3936 63.7898C15.783 63.7898 16.0442 63.6325 16.0442 63.2737C16.0442 62.7147 15.6319 62.5254 15.2486 62.5254H12.7502C12.7502 62.5254 12.9701 62.7926 12.9701 63.3882C12.9701 64.222 12.7502 64.6587 12.7502 65.0481ZM13.978 63.5348C14.0269 62.9026 14.1735 62.7804 14.398 62.7804C14.5919 62.7804 14.7202 63.0538 14.7202 63.2248C14.7202 63.5287 14.4774 63.5348 14.2392 63.5348C14.233 63.5348 14.2208 63.5348 14.2147 63.5348H13.978Z" fill="#455D58"/>
<path d="M18.8458 64.9015C18.8458 65.3154 19.1619 65.6254 19.6979 65.6254C20.3958 65.6254 20.6569 65.407 20.6569 65.407C20.6569 65.407 20.2981 65.2726 20.2981 64.8527C20.2981 64.2388 20.8035 63.8631 20.9731 63.4615C20.9853 64.0265 20.7852 64.7809 20.7852 65.097C20.7852 65.3704 20.8936 65.5643 21.2586 65.5643H22.1581V65.5093C22.1581 65.1153 21.9764 64.8588 21.9764 63.7837C21.9764 63.0599 21.4846 62.5254 20.7119 62.5254H19.9163C19.1741 62.5254 18.8458 62.8659 18.8458 63.2309C18.8458 63.5714 19.0596 63.6677 19.3146 63.6677C19.3146 63.6677 19.704 63.6677 20.1958 63.4126C20.1958 63.2431 19.9774 62.7743 20.5058 62.7743C20.7425 62.7743 20.8707 62.9148 20.9242 63.121C20.7486 63.7043 18.8458 63.7654 18.8458 64.9015Z" fill="#455D58"/>
<path d="M24.9534 65.0481C24.9534 65.2604 25.045 65.5643 25.3855 65.5643H27.4578C27.7739 65.5643 28.2534 65.3887 28.2534 64.8343C28.2534 64.5014 28.0595 64.2159 27.6212 64.2159C27.1722 64.2159 26.8867 64.477 26.8867 64.477C26.8867 64.477 27.0317 64.6099 27.0317 64.9504C27.0317 65.1749 26.9294 65.3093 26.7462 65.3093C26.3644 65.3093 26.1628 64.7687 26.1628 64.0693C26.1628 62.9637 26.3216 62.7804 26.6011 62.7804C26.795 62.7804 26.9233 62.9209 26.9233 63.0904C26.9233 63.3347 26.7767 63.3943 26.7767 63.3943C26.7767 63.3943 27.1234 63.7654 27.5968 63.7654C27.9862 63.7654 28.2473 63.5043 28.2473 63.1393C28.2473 62.5804 27.835 62.5254 27.4517 62.5254H24.9534C24.9534 62.5254 25.1733 62.7926 25.1733 63.3882C25.1733 64.222 24.9534 64.6587 24.9534 65.0481Z" fill="#455D58"/>
<path d="M32.3988 65.5647C32.3988 64.0452 32.4476 62.7808 33.0127 62.7808C33.4311 62.7808 33.3899 63.523 33.3899 63.7291C33.3899 64.4591 33.1272 64.6591 33.1272 65.0913C33.1272 65.4609 33.4189 65.6258 33.8022 65.6258C33.8022 65.6258 34.4771 65.6258 34.6344 65.3219C34.3977 65.3219 34.6528 64.5492 34.6528 63.8086C34.6528 62.9824 34.0511 62.5258 33.5044 62.5258H32.9088C32.6782 62.5258 32.4965 62.5808 32.3438 62.6663C32.3804 62.3563 32.4171 62.0829 32.4171 61.8462C32.4171 61.8462 32.4171 61.2201 32.1376 61.0063H31.0488C31.0488 61.0063 31.2871 61.3774 31.2871 62.1914C31.2871 63.3458 31.0488 64.2224 31.0488 65.5647H32.3988Z" fill="#455D58"/>
<path d="M41.0951 65.565H42.6817C42.6817 64.3372 41.7456 61.5656 43.0589 61.5656C43.5018 61.5656 43.6606 61.8466 43.6606 62.2283C43.6606 63.0255 42.7428 63.1828 42.7428 64.3494C42.7428 64.8656 43.0467 65.6261 43.879 65.6261C44.4196 65.6261 45.0151 65.2917 45.0151 64.4899C45.0151 63.7295 44.2867 63.65 44.0011 63.65C43.9278 63.65 43.8851 63.6562 43.8851 63.6562C43.8851 63.6562 43.9828 64.4472 43.3934 64.4472C43.149 64.4472 43.0345 64.2227 43.0345 63.9967C43.0345 63.0728 45.0151 63.3355 45.0151 62.1199C45.0151 61.451 44.2928 61.3105 43.7996 61.3105H41.0951C41.0951 61.3105 41.3929 61.6816 41.3929 62.4956C41.3929 63.65 41.0951 64.2227 41.0951 65.565Z" fill="#455D58"/>
<path d="M47.8103 65.0481C47.8103 65.2604 47.9019 65.5643 48.2425 65.5643H50.3147C50.6308 65.5643 51.1103 65.3887 51.1103 64.8343C51.1103 64.5014 50.9164 64.2159 50.4781 64.2159C50.0292 64.2159 49.7436 64.477 49.7436 64.477C49.7436 64.477 49.8887 64.6099 49.8887 64.9504C49.8887 65.1749 49.7864 65.3093 49.6031 65.3093C49.2213 65.3093 49.0198 64.7687 49.0198 64.0693C49.0198 63.9654 49.0259 63.8753 49.0259 63.7898H49.2931C49.7008 63.7898 50.2903 63.7898 50.4537 63.7898C50.8431 63.7898 51.1042 63.6325 51.1042 63.2737C51.1042 62.7147 50.6919 62.5254 50.3086 62.5254H47.8103C47.8103 62.5254 48.0302 62.7926 48.0302 63.3882C48.0302 64.222 47.8103 64.6587 47.8103 65.0481ZM49.0381 63.5348C49.0869 62.9026 49.2335 62.7804 49.458 62.7804C49.652 62.7804 49.7802 63.0538 49.7802 63.2248C49.7802 63.5287 49.5374 63.5348 49.2992 63.5348C49.2931 63.5348 49.2809 63.5348 49.2748 63.5348H49.0381Z" fill="#455D58"/>
<path d="M53.9058 65.2247C53.9058 65.4492 54.0585 65.5652 54.3135 65.5652H56.343C56.6835 65.5652 57.2486 65.498 57.2486 64.8536C57.2486 63.7602 55.2435 63.6442 55.2435 63.0135C55.2435 62.8424 55.4558 62.7753 55.639 62.7753C55.8391 62.7753 56.0208 62.8486 56.0208 62.989C56.0269 63.2013 55.9001 63.3464 55.9001 63.3464C55.9001 63.3464 56.1185 63.5602 56.5491 63.5602C56.963 63.5602 57.218 63.3647 57.218 63.0547C57.218 62.5691 56.7568 62.5202 56.343 62.5263C56.2407 62.5263 56.1429 62.5263 56.0574 62.5263H54.654C54.2585 62.5263 53.918 62.7157 53.918 63.183C53.918 64.113 55.778 64.1618 55.778 64.9147C55.778 65.1819 55.6558 65.3163 55.5046 65.3163C55.3229 65.3163 55.1885 65.0613 55.1885 64.8124C55.1885 64.3191 54.7457 64.2107 54.3868 64.2168C54.1379 64.2168 53.9241 64.2642 53.9241 64.2703C53.9241 64.2703 54.0218 64.3863 54.0218 64.6047C54.0218 64.878 53.9058 65.0063 53.9058 65.2247Z" fill="#455D58"/>
<path d="M60.0437 63.0721C60.0437 63.741 61.2287 63.802 61.2287 64.0448C61.2287 64.2876 60.0437 64.3487 60.0437 65.0176C60.0437 65.2604 60.2453 65.5643 60.7248 65.5643H62.9314C63.4109 65.5643 63.611 65.2604 63.611 65.0176C63.611 64.3487 62.426 64.2876 62.426 64.0448C62.426 63.802 63.611 63.741 63.611 63.0721C63.611 62.8293 63.4109 62.5254 62.9314 62.5254H60.7248C60.2453 62.5254 60.0437 62.8293 60.0437 63.0721ZM61.8304 62.7743C62.177 62.7743 62.177 63.5653 62.177 64.0448C62.177 64.5198 62.177 65.3154 61.8304 65.3154C61.4853 65.3154 61.4792 64.5198 61.4792 64.0448C61.4792 63.5653 61.4853 62.7743 61.8304 62.7743Z" fill="#455D58"/>
<path d="M67.7564 65.5643C67.7564 64.0448 67.8053 62.7804 68.3703 62.7804C68.4787 62.7804 68.5826 62.9148 68.5826 63.1759C68.5826 63.4676 68.2298 63.5714 68.2298 63.5714C68.2298 63.5714 68.3337 63.9349 68.9964 63.9349C69.366 63.9349 69.7615 63.7715 69.7615 63.2187C69.7615 62.6109 69.1415 62.5254 68.5643 62.5254H68.2665C68.0176 62.5254 67.8236 62.5926 67.6648 62.6903C67.6098 62.6109 67.5564 62.5559 67.4953 62.5254H66.4065C66.4065 62.5254 66.6447 62.7743 66.6447 63.3164C66.6447 64.0876 66.4065 64.6709 66.4065 65.5643H67.7564Z" fill="#455D58"/>
<path d="M74.1495 62.028C74.1495 61.9669 74.1556 61.9058 74.1556 61.8462C74.1556 61.8462 74.1556 61.2201 73.8701 61.0063H72.7889C72.7889 61.0063 72.9889 61.3286 73.0195 62.028H72.5568V62.283H73.0256C73.0134 63.3825 72.7889 64.0452 72.7889 65.018C72.7889 65.4013 72.8912 65.5647 73.1462 65.5647H74.1312C74.1312 64.4774 74.0151 64.453 74.0151 63.6268C74.0151 63.1153 74.0823 62.6663 74.1251 62.283H74.5572V62.028H74.1495Z" fill="#455D58"/>
</svg>
