<svg width="50" height="60" viewBox="0 0 50 60" fill="none" xmlns="http://www.w3.org/2000/svg">
<path d="M1.4773 53.9935L24.0024 50.6977V59.0235C24.0024 59.562 24.4512 60 25.0005 60C25.5498 60 25.995 59.562 25.995 59.0235V50.6977L48.5237 53.9935C48.9151 54.0438 49.2741 53.8822 49.4859 53.5843C49.7049 53.2755 49.7229 52.8698 49.5326 52.5431L40.1549 36.4409H45.0843C45.4541 36.4409 45.788 36.2434 45.9603 35.9275C46.1362 35.6079 46.1183 35.2202 45.91 34.9186L34.1269 17.786H36.8339C37.2109 17.786 37.5484 17.5814 37.7207 17.2547C37.8966 16.9244 37.8643 16.533 37.6381 16.2315L25.7688 0.359023C25.7509 0.333892 25.7293 0.31235 25.7006 0.283629C25.6755 0.262088 25.6539 0.240545 25.6109 0.204643L25.3703 0.0682145C25.3703 0.0682145 25.3093 0.0502635 25.2734 0.0394926L25.1046 0.00718047C25.1046 0.00718047 25.0328 0 25.0005 0C24.9754 0 24.9503 0.00359046 24.9143 0.00718047C24.8784 0.00718047 24.8461 0.0107712 24.8102 0.0179512C24.7887 0.0215421 24.7671 0.0287221 24.6989 0.046673C24.6738 0.053854 24.6523 0.0646242 24.6164 0.0789852L24.5481 0.107707C24.5481 0.107707 24.4799 0.143609 24.444 0.168741L24.3866 0.211824C24.3866 0.211824 24.3256 0.258497 24.3004 0.287219C24.2789 0.30517 24.2573 0.326711 24.1963 0.398516L12.3629 16.2315C12.1367 16.533 12.108 16.9244 12.2803 17.2547C12.4491 17.585 12.7901 17.786 13.1671 17.786H15.8741L4.09099 34.9222C3.88276 35.2238 3.86121 35.6079 4.03714 35.9275C4.20947 36.2434 4.54695 36.4409 4.91674 36.4409H9.84614L0.464853 52.5467C0.27816 52.8698 0.296111 53.2755 0.511526 53.5843C0.723349 53.8858 1.07878 54.051 1.4773 53.9935ZM18.574 17.3552C18.7822 17.0536 18.8002 16.6659 18.6243 16.3463C18.4519 16.0304 18.1144 15.8329 17.7482 15.8329H15.1274L25.0005 2.62805L34.8701 15.8329H32.2528C31.8866 15.8329 31.5527 16.0304 31.3768 16.3463C31.2009 16.6659 31.2188 17.0536 31.427 17.3552L43.2138 34.4878H38.4388C38.0869 34.4878 37.7602 34.6745 37.5807 34.9725C37.4012 35.2705 37.3976 35.6438 37.5735 35.949L46.7861 51.7676L25.995 48.7231V46.9854L31.2188 42.7202C31.4234 42.555 31.5491 42.3145 31.5706 42.056C31.5958 41.7939 31.5096 41.539 31.3373 41.3416C30.9962 40.9502 30.35 40.8928 29.9407 41.2231L25.995 44.4435V38.2001L31.2188 33.9349C31.4234 33.7697 31.5491 33.5292 31.5706 33.2707C31.5958 33.0122 31.5132 32.7573 31.3409 32.5562C30.9998 32.1613 30.3464 32.1075 29.9407 32.4342L25.995 35.6582V29.4148L31.2152 25.1532C31.4234 24.9844 31.5491 24.7475 31.5706 24.4854C31.5958 24.2233 31.5132 23.972 31.3409 23.7709C30.9998 23.376 30.3464 23.3222 29.9407 23.6525L25.995 26.8729V17.8937C25.995 17.3552 25.5498 16.9208 25.0005 16.9208C24.4512 16.9208 24.0024 17.3552 24.0024 17.8937V26.8729L20.0604 23.6525C19.6547 23.3222 18.9976 23.3796 18.6602 23.7709C18.4878 23.972 18.4053 24.2269 18.4304 24.489C18.4519 24.7475 18.5776 24.9809 18.7822 25.1532L24.0024 29.4148V35.6582L20.0604 32.4378C19.6547 32.1039 18.9976 32.1649 18.6602 32.5562C18.4878 32.7573 18.4053 33.0122 18.4304 33.2743C18.4519 33.5328 18.5776 33.7697 18.7822 33.9385L24.0024 38.2001V44.4435L20.0568 41.2231C19.6511 40.8964 19.0012 40.9502 18.6602 41.3416C18.4878 41.539 18.4088 41.7939 18.4304 42.056C18.4519 42.3145 18.5776 42.555 18.7822 42.7238L24.0024 46.9854V48.7267L3.21497 51.7676L12.4275 35.949C12.6034 35.6474 12.5998 35.2705 12.4203 34.9725C12.2408 34.6745 11.9105 34.4878 11.5623 34.4878H6.78726L18.574 17.3552Z" fill="#455D58"/>
</svg>
