<svg width="24" height="25" viewBox="0 0 24 25" fill="none" xmlns="http://www.w3.org/2000/svg">
<path d="M8.80078 22.375L7.02578 19.35L3.65078 18.625L3.97578 15.125L1.67578 12.5L3.97578 9.875L3.65078 6.375L7.02578 5.65L8.80078 2.625L12.0008 4L15.2008 2.625L16.9758 5.65L20.3508 6.375L20.0258 9.875L22.3258 12.5L20.0258 15.125L20.3508 18.625L16.9758 19.35L15.2008 22.375L12.0008 21L8.80078 22.375ZM9.45078 20.45L12.0008 19.375L14.5758 20.45L16.0008 18.05L18.7508 17.425L18.5008 14.6L20.3508 12.5L18.5008 10.375L18.7508 7.55L16.0008 6.95L14.5508 4.55L12.0008 5.625L9.42578 4.55L8.00078 6.95L5.25078 7.55L5.50078 10.375L3.65078 12.5L5.50078 14.6L5.25078 17.45L8.00078 18.05L9.45078 20.45ZM10.9508 15.7L16.2508 10.4L15.2008 9.325L10.9508 13.575L8.80078 11.45L7.75078 12.5L10.9508 15.7Z" fill="#455D58"/>
</svg>
