<svg width="90" height="61" viewBox="0 0 90 61" fill="none" xmlns="http://www.w3.org/2000/svg">
<mask id="mask0_482_897" style="mask-type:luminance" maskUnits="userSpaceOnUse" x="28" y="0" width="34" height="34">
<path d="M28.8073 0.669922H61.3643V33.227H28.8073V0.669922Z" fill="white"/>
</mask>
<g mask="url(#mask0_482_897)">
<mask id="mask1_482_897" style="mask-type:luminance" maskUnits="userSpaceOnUse" x="28" y="0" width="34" height="34">
<path d="M60.2973 14.489C59.8313 14.0506 59.2606 13.5502 58.603 13.025C58.9338 12.0654 59.1062 11.0053 59.1062 9.86106C59.1062 7.95721 57.9978 6.51933 56.1187 5.9224C55.5315 4.07645 54.0908 2.93083 52.1746 2.93083C50.9462 2.93083 49.8985 3.12108 49.0093 3.43126C48.484 2.77229 47.9836 2.20293 47.5466 1.73834C46.9111 1.05869 46.015 0.669922 45.0872 0.669922C44.6226 0.669922 44.1649 0.767803 43.7458 0.949778C43.3253 1.13175 42.9421 1.39782 42.625 1.73834C42.1893 2.20293 41.6875 2.77229 41.1637 3.42988C40.2731 3.12108 39.2253 2.93083 37.997 2.93083C36.0808 2.93083 34.6415 4.07645 34.0542 5.92102C32.1738 6.51933 31.0668 7.95583 31.0668 9.86106C31.0668 11.0067 31.2377 12.0654 31.5686 13.025C30.911 13.5502 30.3403 14.0506 29.8743 14.489C29.196 15.1246 28.8073 16.0207 28.8073 16.9498C28.8073 17.8776 29.196 18.7751 29.8743 19.4106C30.3403 19.8477 30.911 20.3495 31.5686 20.8733C31.2377 21.8342 31.0668 22.8944 31.0668 24.0386C31.0668 25.9438 32.1738 27.3803 34.0542 27.9759C34.6415 29.8232 36.0808 30.9675 37.997 30.9675C39.2253 30.9675 40.2731 30.7772 41.1637 30.4698C41.6875 31.126 42.1893 31.6967 42.625 32.1613C43.2605 32.8396 44.1566 33.2284 45.0872 33.2284C46.015 33.2284 46.9111 32.8396 47.5466 32.1613C47.9836 31.6967 48.484 31.126 49.0093 30.4698C49.8985 30.7772 50.9462 30.9675 52.1746 30.9675C54.0908 30.9675 55.5315 29.8232 56.1187 27.9759C57.9978 27.3803 59.1062 25.9438 59.1062 24.0386C59.1062 22.8944 58.9338 21.8342 58.603 20.8733C59.2606 20.3495 59.8313 19.8477 60.2973 19.4106C60.9756 18.7751 61.3657 17.8776 61.3657 16.9498C61.3657 16.0207 60.9756 15.1246 60.2973 14.489ZM56.4055 8.07302C56.8894 8.42318 57.2823 8.97876 57.2823 9.86106C57.2823 10.5807 57.2023 11.2548 57.0479 11.878C56.6509 11.605 56.2318 11.3375 55.7948 11.0742C56.1711 10.0913 56.3834 9.07112 56.4055 8.07302ZM54.5664 7.46643C54.5788 7.61394 54.5871 7.76145 54.5871 7.90896C54.5871 8.66168 54.4437 9.43783 54.1804 10.1933C53.6593 9.93689 53.1175 9.69701 52.5564 9.47919C52.34 8.9181 52.1001 8.37631 51.8423 7.85658C52.7715 7.53123 53.7131 7.3975 54.5664 7.46643ZM52.1746 4.75472C52.9962 4.75472 53.5711 5.10489 53.9557 5.62875C52.9783 5.65219 51.9526 5.86036 50.96 6.23947C50.6981 5.80246 50.4306 5.38474 50.159 4.98908C50.7491 4.84157 51.4149 4.75472 52.1746 4.75472ZM51.7858 13.7336C50.6112 14.762 48.7653 15.8015 46.0343 16C46.2025 13.7308 46.9758 11.7635 48.3034 10.2512C49.2864 10.3725 50.2335 10.6014 51.1337 10.9019C51.4342 11.8035 51.6617 12.7506 51.7858 13.7336ZM43.9553 2.9846C44.2517 2.6689 44.6529 2.49381 45.0872 2.49381C45.5187 2.49381 45.9212 2.6689 46.2162 2.9846C46.5526 3.34303 46.9304 3.76626 47.326 4.24739C46.2824 4.92567 45.5655 5.75972 45.0872 6.49176C44.6074 5.75972 43.8892 4.92567 42.8456 4.24739C43.2412 3.76626 43.619 3.34303 43.9553 2.9846ZM41.7385 5.69768C43.3336 6.66271 43.965 8.10472 44.1635 8.69339C44.2986 9.09042 44.6681 9.35512 45.0872 9.35512C45.5035 9.35512 45.873 9.09042 46.0081 8.69477C46.2066 8.10472 46.838 6.66271 48.433 5.69768C48.7322 6.11954 49.03 6.56896 49.3181 7.0432C48.5778 7.49262 47.8981 8.03304 47.2915 8.65892C46.5347 9.43921 45.702 10.5517 45.0872 12.053C44.4723 10.5517 43.6396 9.43921 42.8814 8.6603C42.2721 8.03166 41.5924 7.49125 40.8549 7.04182C41.143 6.56896 41.4408 6.11954 41.7385 5.69768ZM51.7858 20.1661C51.6617 21.1491 51.4342 22.0948 51.1337 22.9978C50.2335 23.2983 49.2864 23.5258 48.3034 23.6498C46.9758 22.1361 46.2025 20.1702 46.0343 17.8997C48.7653 18.0982 50.6112 19.1377 51.7858 20.1661ZM44.1401 16.0014C41.4063 15.8015 39.5617 14.762 38.3872 13.7336C38.5099 12.7506 38.7373 11.8035 39.0379 10.9019C39.9395 10.6014 40.8866 10.3725 41.8695 10.2498C43.1971 11.7635 43.9719 13.7294 44.1401 16.0014ZM37.997 4.75472C38.7566 4.75472 39.4225 4.84157 40.0125 4.98908C39.7437 5.38474 39.4735 5.80246 39.2116 6.2381C38.2203 5.86036 37.1947 5.65219 36.2172 5.62875C36.6019 5.10489 37.1754 4.75472 37.997 4.75472ZM35.6051 7.46781C36.4585 7.3975 37.4001 7.53123 38.3293 7.8552C38.0742 8.37631 37.833 8.9181 37.6151 9.47919C37.054 9.69701 36.5123 9.93689 35.9911 10.1933C35.7278 9.43783 35.5845 8.6603 35.5845 7.90896C35.5845 7.76145 35.5927 7.61394 35.6051 7.46781ZM33.7661 8.07164C33.7881 9.06975 34.0004 10.0913 34.3768 11.0742C33.9398 11.3375 33.5207 11.605 33.125 11.878C32.9693 11.2548 32.8893 10.5807 32.8893 9.86106C32.8893 8.97876 33.2822 8.42318 33.7661 8.07164ZM33.7661 25.8267C33.2822 25.4751 32.8893 24.9209 32.8893 24.0386C32.8893 23.3176 32.9693 22.6435 33.125 22.0217C33.5207 22.2933 33.9398 22.5635 34.3768 22.8254C34.0004 23.807 33.7881 24.8299 33.7661 25.8267ZM31.1205 18.0803C30.8048 17.7839 30.6298 17.3827 30.6298 16.9498C30.6298 16.517 30.8048 16.1144 31.1205 15.818C32.0635 14.9343 33.46 13.7639 35.1833 12.7161C35.5721 13.3558 36.0311 13.9596 36.5564 14.5042C37.3698 15.3493 38.5485 16.2812 40.1766 16.9498C38.5485 17.6185 37.3684 18.5518 36.5564 19.3941C36.0311 19.9386 35.5721 20.5439 35.1833 21.1835C33.46 20.1358 32.0635 18.9654 31.1205 18.0803ZM44.1401 17.8997C43.9719 20.1702 43.1971 22.1361 41.8695 23.6498C40.8866 23.5258 39.9395 23.2983 39.0379 22.9978C38.7373 22.0948 38.5099 21.1491 38.3872 20.1661C39.5617 19.1377 41.4063 18.0982 44.1401 17.8997ZM35.6051 26.4319C35.5927 26.2857 35.5845 26.1382 35.5845 25.9921C35.5845 25.238 35.7278 24.4618 35.9911 23.7064C36.5123 23.9628 37.054 24.2027 37.6151 24.4205C37.833 24.9816 38.0742 25.522 38.3293 26.0445C37.4001 26.3671 36.4585 26.5022 35.6051 26.4319ZM37.997 29.1463C37.174 29.1463 36.5991 28.7934 36.2145 28.2668C37.1933 28.2447 38.219 28.0379 39.2102 27.6602C39.4735 28.0972 39.7423 28.5122 40.0125 28.9092C39.4225 29.0567 38.7566 29.1463 37.997 29.1463ZM46.2162 30.9151C45.9212 31.2308 45.5187 31.4059 45.0872 31.4059C44.6529 31.4059 44.2517 31.2322 43.9553 30.9151C43.619 30.5566 43.2412 30.132 42.8456 29.6509C43.8892 28.974 44.606 28.1399 45.0872 27.4093C45.5655 28.1399 46.2824 28.974 47.326 29.6509C46.9304 30.132 46.5526 30.5566 46.2162 30.9151ZM48.433 28.202C46.838 27.237 46.208 25.7949 46.0081 25.2063C45.873 24.8106 45.5035 24.5432 45.0872 24.5432C44.6681 24.5432 44.2986 24.8106 44.1649 25.2063C43.965 25.7949 43.3336 27.237 41.7399 28.202C41.4408 27.7788 41.143 27.3307 40.8549 26.8565C41.5924 26.407 42.2721 25.8666 42.8814 25.2394C43.6396 24.4605 44.4723 23.3479 45.0872 21.8453C45.702 23.3479 46.5333 24.4591 47.2915 25.238C47.8981 25.8653 48.5778 26.4057 49.3181 26.8551C49.03 27.3307 48.7322 27.7788 48.433 28.202ZM52.1746 29.1463C51.4149 29.1463 50.7491 29.0567 50.159 28.9092C50.4306 28.5122 50.6995 28.0958 50.9614 27.6588C51.954 28.0379 52.9797 28.2447 53.9571 28.2668C53.5725 28.7934 52.9976 29.1463 52.1746 29.1463ZM54.5664 26.4319C53.7131 26.5022 52.7715 26.3671 51.8423 26.0431C52.1001 25.522 52.34 24.9816 52.5564 24.4205C53.1175 24.2027 53.6593 23.9628 54.1804 23.7064C54.4437 24.4618 54.5871 25.238 54.5871 25.9921C54.5871 26.1382 54.5788 26.2857 54.5664 26.4319ZM56.4055 25.8253C56.3834 24.8299 56.1711 23.807 55.7948 22.8254C56.2318 22.5635 56.6509 22.2933 57.0479 22.0217C57.2023 22.6435 57.2823 23.3176 57.2823 24.0386C57.2823 24.9209 56.8894 25.4751 56.4055 25.8253ZM59.051 18.0803C58.1081 18.9654 56.7115 20.1344 54.9897 21.1835C54.6009 20.5439 54.1404 19.9386 53.6166 19.3941C52.8032 18.5518 51.6231 17.6185 49.995 16.9498C51.6231 16.2812 52.8032 15.3493 53.6166 14.5042C54.1404 13.9596 54.6009 13.3558 54.9897 12.7161C56.7115 13.7639 58.1081 14.9343 59.051 15.818C59.3681 16.1144 59.5432 16.517 59.5432 16.9498C59.5432 17.3827 59.3667 17.7839 59.051 18.0803Z" fill="white"/>
</mask>
<g mask="url(#mask1_482_897)">
<path d="M28.8073 0.669922V33.227H61.3643V0.669922H28.8073Z" fill="#455D58"/>
</g>
</g>
<path d="M14.1279 39.9072L11.4534 51.6253H10.9516C10.2568 51.6253 9.73569 51.4916 9.39104 51.2228C9.04501 50.9553 8.75413 50.4591 8.51976 49.7339L7.06396 45.179L5.59161 49.7339C5.3669 50.437 5.07877 50.9278 4.72585 51.2063C4.37568 51.4861 3.86147 51.6253 3.18181 51.6253H2.68L0 39.9072H1.50543L3.83251 50.1861C4.03379 50.0758 4.20198 49.8249 4.33433 49.4306L7.06396 41.4127L9.77705 49.4306C9.92318 49.8359 10.0914 50.0813 10.2789 50.1695L12.6059 39.9072H14.1279Z" fill="#455D58"/>
<path d="M23.7002 48.2105H18.649L17.6068 51.6239H16.0187L18.9799 41.9792C19.1591 41.3988 19.3439 40.9466 19.5314 40.6226C19.7216 40.3 19.9463 40.0684 20.2041 39.9278C20.4605 39.7886 20.779 39.7183 21.1581 39.7183C21.7164 39.7183 22.1576 39.8837 22.4816 40.2146C22.8042 40.5454 23.095 41.1341 23.3528 41.9792L26.3306 51.6239H24.7259L23.7002 48.2105ZM23.3363 46.9863L21.8253 41.9957C21.7371 41.6952 21.6434 41.487 21.5441 41.3726C21.4449 41.2554 21.3153 41.1961 21.1581 41.1961C21.0147 41.1961 20.8948 41.2554 20.7997 41.3726C20.7032 41.487 20.6122 41.6952 20.5239 41.9957L19.013 46.9863H23.3363Z" fill="#455D58"/>
<path d="M38.2671 51.6253H36.5742L35.7856 48.7468C35.6312 48.1885 35.4616 47.7529 35.2783 47.4399C35.0935 47.1283 34.8399 46.894 34.5173 46.7396C34.1933 46.5824 33.7522 46.5025 33.1938 46.5025H30.8337V51.6253H29.24V39.9072H34.1644C35.3693 39.9072 36.2764 40.1829 36.883 40.7344C37.4923 41.2858 37.7984 42.0937 37.7984 43.1552C37.7984 43.9686 37.5998 44.6207 37.2028 45.1128C36.8058 45.6064 36.2447 45.9124 35.5209 46.0337C36.031 46.2143 36.4266 46.5218 36.7065 46.9546C36.985 47.3889 37.2373 47.9914 37.462 48.7634L38.2671 51.6253ZM34.0982 45.2452C34.7448 45.2452 35.2576 45.0715 35.6367 44.7213C36.0144 44.3684 36.2047 43.8638 36.2047 43.2048C36.2047 42.5473 36.0172 42.0441 35.6422 41.6939C35.27 41.341 34.7558 41.1645 34.0982 41.1645H30.8337V45.2452H34.0982Z" fill="#455D58"/>
<path d="M41.3917 39.9072H45.6102C46.8703 39.9072 47.8684 40.0975 48.6046 40.4752C49.3435 40.8543 49.8756 41.4678 50.2038 42.317C50.5346 43.1662 50.7 44.316 50.7 45.7635C50.7 47.2276 50.5346 48.3815 50.2038 49.2266C49.8756 50.0689 49.3435 50.6796 48.6046 51.0574C47.8684 51.4365 46.8703 51.6253 45.6102 51.6253H41.3917V39.9072ZM45.6102 50.3681C46.4705 50.3681 47.1543 50.2178 47.6616 49.9159C48.1689 49.6153 48.5356 49.1328 48.7645 48.4711C48.9961 47.8066 49.1119 46.9091 49.1119 45.7801C49.1119 44.6441 48.9961 43.7425 48.7645 43.0725C48.5356 42.3997 48.1689 41.9145 47.6616 41.6167C47.1543 41.3162 46.4705 41.1645 45.6102 41.1645H42.9854V50.3681H45.6102Z" fill="#455D58"/>
<path d="M54.1125 39.9072H55.7062V51.6253H54.1125V39.9072Z" fill="#455D58"/>
<path d="M63.1222 51.6253C61.7574 51.6253 60.7579 51.3303 60.1223 50.7375C59.4854 50.1461 59.1683 49.2583 59.1683 48.0741V43.453C59.1683 42.2729 59.4854 41.3878 60.1223 40.795C60.7579 40.2036 61.7574 39.9072 63.1222 39.9072H67.1201V41.1645H63.1222C62.306 41.1645 61.7077 41.352 61.33 41.727C60.9509 42.0992 60.762 42.6741 60.762 43.453V45.1294H66.2985V46.4032H60.762V48.0741C60.762 48.8571 60.9509 49.4361 61.33 49.8111C61.7077 50.1833 62.306 50.3681 63.1222 50.3681H67.1863V51.6253H63.1222Z" fill="#455D58"/>
<path d="M79.3923 51.6253H77.6994L76.9108 48.7468C76.7564 48.1885 76.5869 47.7529 76.4035 47.4399C76.2188 47.1283 75.9651 46.894 75.6425 46.7396C75.3186 46.5824 74.8774 46.5025 74.3191 46.5025H71.9589V51.6253H70.3652V39.9072H75.2896C76.4945 39.9072 77.4016 40.1829 78.0082 40.7344C78.6175 41.2858 78.9236 42.0937 78.9236 43.1552C78.9236 43.9686 78.7251 44.6207 78.328 45.1128C77.931 45.6064 77.3699 45.9124 76.6461 46.0337C77.1562 46.2143 77.5519 46.5218 77.8317 46.9546C78.1102 47.3889 78.3625 47.9914 78.5872 48.7634L79.3923 51.6253ZM75.2234 45.2452C75.87 45.2452 76.3828 45.0715 76.762 44.7213C77.1397 44.3684 77.3299 43.8638 77.3299 43.2048C77.3299 42.5473 77.1424 42.0441 76.7675 41.6939C76.3952 41.341 75.881 41.1645 75.2234 41.1645H71.9589V45.2452H75.2234Z" fill="#455D58"/>
<path d="M85.9359 51.6253C84.5711 51.6253 83.5716 51.3303 82.936 50.7375C82.2991 50.1461 81.9821 49.2583 81.9821 48.0741V43.453C81.9821 42.2729 82.2991 41.3878 82.936 40.795C83.5716 40.2036 84.5711 39.9072 85.9359 39.9072H89.9338V41.1645H85.9359C85.1198 41.1645 84.5214 41.352 84.1437 41.727C83.7646 42.0992 83.5757 42.6741 83.5757 43.453V45.1294H89.1122V46.4032H83.5757V48.0741C83.5757 48.8571 83.7646 49.4361 84.1437 49.8111C84.5214 50.1833 85.1198 50.3681 85.9359 50.3681H90V51.6253H85.9359Z" fill="#455D58"/>
<path d="M12.4285 56.3018V60.9008H11.9101V58.8494H9.23566V60.9008H8.71179V56.3018H9.23566V58.3421H11.9101V56.3018H12.4285Z" fill="#455D58"/>
<path d="M16.9854 56.2466C17.672 56.2466 18.2372 56.4768 18.6784 56.9359C19.1085 57.3812 19.3235 57.9367 19.3235 58.6012C19.3235 59.2671 19.1085 59.8227 18.6784 60.2666C18.2372 60.727 17.672 60.9559 16.9854 60.9559C16.3016 60.9559 15.7392 60.727 15.298 60.2666C14.8679 59.8227 14.6528 59.2671 14.6528 58.6012C14.6528 57.9367 14.8679 57.3812 15.298 56.9359C15.7392 56.4768 16.3016 56.2466 16.9854 56.2466ZM16.9854 60.4486C17.5327 60.4486 17.9753 60.2707 18.3144 59.9137C18.637 59.5718 18.7997 59.1348 18.7997 58.6012C18.7997 58.0691 18.637 57.6307 18.3144 57.2888C17.9753 56.9331 17.5327 56.7539 16.9854 56.7539C16.4409 56.7539 15.9997 56.9331 15.662 57.2888C15.338 57.6307 15.1767 58.0691 15.1767 58.6012C15.1767 59.1348 15.338 59.5718 15.662 59.9137C15.9997 60.2707 16.4409 60.4486 16.9854 60.4486Z" fill="#455D58"/>
<path d="M24.8112 56.8036H23.2065V60.9008H22.6882V56.8036H21.0835V56.3018H24.8112V56.8036Z" fill="#455D58"/>
<path d="M27.3869 56.8036V58.3421H29.9401V58.8494H27.3869V60.399H30.2489V60.9008H26.863V56.3018H30.2489V56.8036H27.3869Z" fill="#455D58"/>
<path d="M33.0018 56.3018V60.399H35.5053V60.9008H32.4779V56.3018H33.0018Z" fill="#455D58"/>
<path d="M40.6795 56.6105C40.8077 56.4975 40.9662 56.4093 41.1537 56.3458C41.3439 56.2797 41.5618 56.2466 41.8044 56.2466C42.0498 56.2466 42.258 56.2742 42.4275 56.3293C42.5998 56.3844 42.7474 56.4589 42.8687 56.5499C43.0851 56.7194 43.2216 56.9386 43.2767 57.2061H42.7308C42.6936 57.093 42.5985 56.9828 42.4441 56.8752C42.2897 56.7691 42.0994 56.7153 41.8761 56.7153C41.6555 56.7153 41.4818 56.7374 41.3577 56.7815C41.2323 56.8228 41.1289 56.8794 41.0489 56.9524C40.8904 57.093 40.8118 57.2778 40.8118 57.5094C40.8118 57.7603 40.9014 57.9547 41.082 58.0939C41.2433 58.2152 41.4542 58.2759 41.7162 58.2759H42.8301V57.9671H43.3209V58.2759H43.773V58.7391H43.3209V59.6214C43.3209 60.0226 43.1802 60.3424 42.9018 60.5809C42.6178 60.8318 42.2345 60.9559 41.7492 60.9559C41.3081 60.9559 40.9304 60.8291 40.6188 60.5754C40.299 60.3148 40.139 59.984 40.139 59.5828C40.139 59.3333 40.2121 59.1113 40.3596 58.9156C40.5057 58.7212 40.7139 58.5723 40.9827 58.4689C40.8132 58.4179 40.6588 58.3021 40.5195 58.1215C40.3651 57.9202 40.2879 57.7217 40.2879 57.5259C40.2879 57.3315 40.321 57.1592 40.3872 57.0076C40.4534 56.8532 40.5499 56.7208 40.6795 56.6105ZM41.65 58.7391C41.366 58.7391 41.1289 58.8259 40.9386 58.9983C40.7511 59.1568 40.6574 59.3567 40.6574 59.5993C40.6574 59.8392 40.7594 60.046 40.9662 60.2225C41.1675 60.4031 41.4294 60.4927 41.7492 60.4927C42.0911 60.4927 42.3613 60.4072 42.5599 60.2335C42.7391 60.0874 42.8301 59.8971 42.8301 59.6655V58.7391H41.65Z" fill="#455D58"/>
<path d="M49.2571 60.9008H48.7333V56.3018H50.9335C51.4036 56.3018 51.78 56.4313 52.064 56.6878C52.3425 56.9456 52.4831 57.2971 52.4831 57.741C52.4831 58.3145 52.246 58.706 51.7717 58.9156C51.6352 58.9749 51.5029 59.019 51.3747 59.0479L52.5823 60.9008H51.9647L50.8508 59.1362H49.2571V60.9008ZM49.2571 58.6454H50.8453C51.3375 58.6454 51.6752 58.491 51.8599 58.1822C51.9289 58.0691 51.9647 57.9216 51.9647 57.741C51.9647 57.4474 51.8655 57.2158 51.6669 57.0462C51.4684 56.878 51.2037 56.7925 50.8729 56.7925H49.2571V58.6454Z" fill="#455D58"/>
<path d="M55.2958 56.8036V58.3421H57.849V58.8494H55.2958V60.399H58.1578V60.9008H54.772V56.3018H58.1578V56.8036H55.2958Z" fill="#455D58"/>
<path d="M60.9164 57.0076C60.8282 57.0848 60.7676 57.1702 60.7345 57.2612C60.7041 57.3536 60.6904 57.4529 60.6904 57.559C60.6904 57.6624 60.7358 57.7575 60.8282 57.8458C60.9192 57.934 61.0391 58.0084 61.1866 58.0663C61.3328 58.1256 61.5023 58.1794 61.694 58.2263C61.8842 58.2745 62.0772 58.3228 62.273 58.3696C62.4715 58.4179 62.6645 58.473 62.852 58.5351C63.0422 58.5985 63.2118 58.6771 63.3593 58.7722C63.6902 58.9817 63.8556 59.2671 63.8556 59.6269C63.8556 60.0612 63.6929 60.392 63.3704 60.6195C63.0505 60.8442 62.6052 60.9559 62.0359 60.9559C61.3921 60.9559 60.9013 60.8222 60.5635 60.5533C60.2616 60.3107 60.0893 59.9688 60.0452 59.5277H60.5911C60.609 59.8406 60.762 60.0819 61.0488 60.25C61.2983 60.3934 61.6292 60.4651 62.0414 60.4651C62.9016 60.4651 63.3318 60.1935 63.3318 59.649C63.3318 59.4656 63.2546 59.3209 63.1001 59.2133C62.9457 59.1072 62.75 59.019 62.5156 58.9486C62.284 58.8797 62.0317 58.8149 61.7601 58.7556C61.4872 58.6936 61.2335 58.6164 60.9992 58.524C60.7676 58.4289 60.5745 58.3035 60.4201 58.1491C60.2657 57.9919 60.1885 57.7796 60.1885 57.5149C60.1885 57.1399 60.3319 56.8352 60.6187 56.5995C60.9054 56.3651 61.3369 56.2466 61.9146 56.2466C62.4991 56.2466 62.9513 56.3817 63.2711 56.6491C63.5606 56.8849 63.715 57.1882 63.7343 57.559H63.1994C63.1553 57.1813 62.9099 56.929 62.466 56.8035C62.3075 56.7567 62.1103 56.7319 61.876 56.7319C61.6443 56.7319 61.4472 56.7594 61.2859 56.8146C61.1274 56.867 61.0047 56.9304 60.9164 57.0076Z" fill="#455D58"/>
<path d="M68.091 56.2466C68.7776 56.2466 69.3428 56.4768 69.7839 56.9359C70.2141 57.3812 70.4291 57.9367 70.4291 58.6012C70.4291 59.2671 70.2141 59.8227 69.7839 60.2666C69.3428 60.727 68.7776 60.9559 68.091 60.9559C67.4072 60.9559 66.8448 60.727 66.4036 60.2666C65.9735 59.8227 65.7584 59.2671 65.7584 58.6012C65.7584 57.9367 65.9735 57.3812 66.4036 56.9359C66.8448 56.4768 67.4072 56.2466 68.091 56.2466ZM68.091 60.4486C68.6383 60.4486 69.0809 60.2707 69.42 59.9137C69.7426 59.5718 69.9053 59.1348 69.9053 58.6012C69.9053 58.0691 69.7426 57.6307 69.42 57.2888C69.0809 56.9331 68.6383 56.7539 68.091 56.7539C67.5465 56.7539 67.1053 56.9331 66.7676 57.2888C66.4436 57.6307 66.2823 58.0691 66.2823 58.6012C66.2823 59.1348 66.4436 59.5718 66.7676 59.9137C67.1053 60.2707 67.5465 60.4486 68.091 60.4486Z" fill="#455D58"/>
<path d="M73.1761 60.9008H72.6522V56.3018H74.8525C75.3226 56.3018 75.6989 56.4313 75.9829 56.6878C76.2614 56.9456 76.402 57.2971 76.402 57.741C76.402 58.3145 76.1649 58.706 75.6907 58.9156C75.5542 58.9749 75.4218 59.019 75.2936 59.0479L76.5013 60.9008H75.8837L74.7698 59.1362H73.1761V60.9008ZM73.1761 58.6454H74.7642C75.2564 58.6454 75.5942 58.491 75.7789 58.1822C75.8478 58.0691 75.8837 57.9216 75.8837 57.741C75.8837 57.4474 75.7844 57.2158 75.5859 57.0462C75.3874 56.878 75.1227 56.7925 74.7918 56.7925H73.1761V58.6454Z" fill="#455D58"/>
<path d="M81.9555 56.8036H80.3508V60.9008H79.8325V56.8036H78.2278V56.3018H81.9555V56.8036Z" fill="#455D58"/>
</svg>
